<svg width="492" height="148" viewBox="0 0 492 148" fill="none" xmlns="http://www.w3.org/2000/svg">
<g clip-path="url(#clip0_99:429)">
<rect width="492" height="128" rx="12" transform="matrix(-1 0 0 1 492 10)" fill="#F4F4F4"/>
<g opacity="0.4">
<path d="M382.442 118.907C394.808 641.615 696.08 560.892 445.44 102.03C968.155 89.6503 887.428 -211.636 428.56 39.0331C416.189 -483.697 114.906 -402.964 365.563 55.9079C-157.16 68.2763 -76.4244 369.555 382.442 118.907Z" stroke="#C8C8C8" stroke-width="0.5" stroke-miterlimit="10"/>
<path d="M389.883 121.876C491.808 629.42 771.688 498.913 448.408 94.5905C955.957 -7.35206 825.443 -287.242 421.117 36.0651C319.186 -471.501 39.295 -340.981 362.593 63.3489C-144.964 165.28 -14.4437 445.163 389.883 121.876Z" stroke="#C8C8C8" stroke-width="0.5" stroke-miterlimit="10"/>
<path d="M397.652 123.489C584.296 600.852 834.757 425.476 450.026 86.8252C927.386 -99.8403 752.008 -350.309 413.352 34.4488C226.7 -442.933 -23.7699 -267.547 360.979 71.1145C-116.393 257.767 58.9933 508.23 397.652 123.489Z" stroke="#C8C8C8" stroke-width="0.5" stroke-miterlimit="10"/>
<path d="M405.502 123.726C669.564 557.095 883.625 343.033 450.267 78.9744C883.629 -185.108 669.562 -399.174 405.504 34.2096C141.432 -399.171 -72.6371 -185.097 360.743 78.9633C-72.6353 343.037 141.441 557.097 405.502 123.726Z" stroke="#C8C8C8" stroke-width="0.5" stroke-miterlimit="10"/>
<path d="M413.198 122.61C745.181 499.768 917.101 254.241 449.153 71.2757C826.303 -260.727 580.77 -432.65 397.811 35.3237C65.8132 -341.847 -106.109 -96.3071 361.859 86.6583C-15.3076 418.656 230.231 590.571 413.198 122.61Z" stroke="#C8C8C8" stroke-width="0.5" stroke-miterlimit="10"/>
<path d="M420.511 120.201C809.058 430.872 934.475 161.91 446.742 63.9645C757.405 -324.601 488.439 -450.023 390.499 37.7374C1.93666 -272.945 -123.483 -3.97062 364.272 93.9697C53.5937 482.531 322.564 607.945 420.511 120.201Z" stroke="#C8C8C8" stroke-width="0.5" stroke-miterlimit="10"/>
<path d="M427.225 116.593C859.495 352.71 935.542 68.8937 443.134 57.2465C679.243 -375.038 395.424 -451.087 383.786 41.3448C-48.4971 -194.783 -124.546 89.0461 367.881 100.686C131.756 532.969 415.576 609.01 427.225 116.593Z" stroke="#C8C8C8" stroke-width="0.5" stroke-miterlimit="10"/>
<path d="M433.154 111.918C895.236 267.828 920.59 -21.9837 438.461 51.3181C594.357 -410.777 304.539 -436.135 377.858 46.0182C-84.2395 -109.899 -109.595 179.927 372.548 106.616C216.638 568.709 506.455 594.058 433.154 111.918Z" stroke="#C8C8C8" stroke-width="0.5" stroke-miterlimit="10"/>
<path d="M438.129 106.342C915.49 178.913 890.386 -108.025 432.886 46.3407C505.446 -431.033 218.5 -405.928 372.883 51.5924C-104.498 -20.9846 -79.3887 265.97 378.126 111.592C305.549 588.966 592.493 563.851 438.129 106.342Z" stroke="#C8C8C8" stroke-width="0.5" stroke-miterlimit="10"/>
<path d="M442.02 100.048C919.95 88.7383 846.14 -186.728 426.591 42.4441C415.268 -435.497 139.795 -361.686 368.993 57.8804C-108.96 69.1884 -35.1447 344.67 384.418 115.479C395.728 593.429 671.195 519.607 442.02 100.048Z" stroke="#C8C8C8" stroke-width="0.5" stroke-miterlimit="10"/>
<path d="M444.735 93.2448C908.801 0.0482492 789.471 -255.858 419.789 39.7301C326.576 -424.343 70.6622 -305.01 366.278 64.6837C-97.8116 157.884 21.5263 413.803 391.221 118.195C484.421 582.277 740.327 462.935 444.735 93.2448Z" stroke="#C8C8C8" stroke-width="0.5" stroke-miterlimit="10"/>
<path d="M446.209 86.1411C882.678 -84.5189 722.327 -313.526 412.686 38.2489C242.01 -398.223 12.9956 -237.865 364.799 71.7818C-71.6899 242.449 88.6718 471.468 398.321 119.672C568.986 556.154 797.989 395.793 446.209 86.1411Z" stroke="#C8C8C8" stroke-width="0.5" stroke-miterlimit="10"/>
<path d="M446.428 78.9595C842.67 -162.483 646.948 -358.208 405.508 38.0283C164.048 -358.213 -31.684 -162.479 364.58 78.9577C-31.6803 320.411 164.057 516.147 405.502 119.889C646.951 516.138 842.674 320.408 446.428 78.9595Z" stroke="#C8C8C8" stroke-width="0.5" stroke-miterlimit="10"/>
<path d="M445.407 71.9227C790.255 -231.625 565.762 -388.816 398.471 39.0479C94.9061 -305.796 -62.2876 -81.2934 365.6 85.991C20.7388 389.552 245.243 546.751 412.537 118.864C716.091 463.723 873.279 239.22 445.407 71.9227Z" stroke="#C8C8C8" stroke-width="0.5" stroke-miterlimit="10"/>
<path d="M443.202 65.238C727.258 -290.026 481.34 -404.702 391.784 41.2539C36.5065 -242.798 -78.171 3.13295 367.8 92.6794C83.733 447.957 329.665 562.638 419.22 116.663C774.494 400.726 889.164 154.799 443.202 65.238Z" stroke="#C8C8C8" stroke-width="0.5" stroke-miterlimit="10"/>
<path d="M439.901 59.0982C655.792 -336.144 396.291 -405.677 385.639 44.5517C-9.61124 -171.333 -79.146 88.1802 371.102 98.819C155.196 494.076 414.71 563.611 425.36 113.362C820.61 329.259 890.139 69.7519 439.901 59.0982Z" stroke="#C8C8C8" stroke-width="0.5" stroke-miterlimit="10"/>
<path d="M435.628 53.6798C578.181 -368.823 313.2 -392.008 380.221 48.8229C-42.2888 -93.721 -65.4683 171.274 375.374 104.24C232.815 526.755 497.809 549.94 430.781 109.089C853.291 251.648 876.467 -13.3433 435.628 53.6798Z" stroke="#C8C8C8" stroke-width="0.5" stroke-miterlimit="10"/>
<path d="M430.53 49.1307C496.886 -387.342 234.528 -364.388 375.67 53.9227C-60.8083 -12.4219 -37.8513 249.946 380.473 108.789C314.106 545.278 576.479 522.321 435.33 103.993C871.808 170.351 848.849 -92.0117 430.53 49.1307Z" stroke="#C8C8C8" stroke-width="0.5" stroke-miterlimit="10"/>
<path d="M424.774 45.5695C414.434 -391.426 162.567 -323.939 372.105 59.6749C-64.8885 70.0263 2.60154 321.906 386.221 112.348C396.558 549.36 648.436 481.866 438.885 98.2407C875.89 87.9004 808.394 -163.973 424.774 45.5695Z" stroke="#C8C8C8" stroke-width="0.5" stroke-miterlimit="10"/>
<path d="M418.553 43.0892C333.339 -381.228 99.3555 -272.122 369.623 65.898C-54.6942 151.123 54.4203 385.116 392.443 114.83C477.657 539.162 711.648 430.047 441.368 92.0195C865.692 6.80345 756.578 -227.183 418.553 43.0892Z" stroke="#C8C8C8" stroke-width="0.5" stroke-miterlimit="10"/>
<path d="M412.057 41.7395C256.02 -357.344 46.6282 -210.728 368.273 72.3934C-30.8091 228.444 115.813 437.84 398.934 116.181C554.977 515.28 764.374 368.654 442.716 85.5256C841.806 -70.5175 695.186 -279.908 412.057 41.7395Z" stroke="#C8C8C8" stroke-width="0.5" stroke-miterlimit="10"/>
<path d="M405.495 41.5394C184.738 -320.76 5.77559 -141.802 368.072 78.9578C5.77559 299.727 184.742 478.692 405.495 116.382C626.262 478.696 805.228 299.727 442.917 78.9652C805.226 -141.804 626.26 -320.762 405.495 41.5394Z" stroke="#C8C8C8" stroke-width="0.5" stroke-miterlimit="10"/>
<path d="M399.061 42.4736C121.517 -272.834 -22.2125 -67.5718 369.004 85.394C53.701 362.948 258.972 506.678 411.926 115.449C689.483 430.772 833.213 225.497 441.983 72.5307C757.297 -205.022 552.03 -348.746 399.061 42.4736Z" stroke="#C8C8C8" stroke-width="0.5" stroke-miterlimit="10"/>
<path d="M392.95 44.4925C68.119 -215.234 -36.7373 9.6193 371.022 91.5078C111.302 416.348 336.162 521.203 418.041 113.436C742.884 373.17 847.738 148.304 439.967 66.4189C699.698 -258.423 474.839 -363.272 392.95 44.4925Z" stroke="#C8C8C8" stroke-width="0.5" stroke-miterlimit="10"/>
<path d="M387.334 47.5085C25.9538 -149.892 -37.6285 87.3849 374.037 97.1228C176.646 458.512 413.923 522.093 423.655 110.42C785.052 307.826 848.628 70.5397 436.95 60.8056C634.354 -300.589 397.077 -364.164 387.334 47.5085Z" stroke="#C8C8C8" stroke-width="0.5" stroke-miterlimit="10"/>
<path d="M382.379 51.4163C-3.92746 -78.928 -25.129 163.362 377.942 102.078C247.606 488.395 489.899 509.593 428.61 106.512C814.93 236.86 836.126 -5.4352 433.042 55.8505C563.389 -330.468 321.102 -351.664 382.379 51.4163Z" stroke="#C8C8C8" stroke-width="0.5" stroke-miterlimit="10"/>
<path d="M378.217 56.0784C-20.8613 -4.59556 0.121503 235.292 382.605 106.238C321.937 505.327 561.831 484.342 432.77 101.854C831.867 162.527 810.875 -77.3672 428.382 51.6905C489.059 -347.404 249.171 -326.412 378.217 56.0784Z" stroke="#C8C8C8" stroke-width="0.5" stroke-miterlimit="10"/>
<path d="M374.964 61.3396C-24.5929 70.792 37.1096 301.088 387.868 109.493C397.326 509.059 627.626 447.352 436.025 96.5909C835.596 87.1348 773.885 -143.163 423.123 48.4373C413.67 -351.136 183.375 -289.422 374.964 61.3396Z" stroke="#C8C8C8" stroke-width="0.5" stroke-miterlimit="10"/>
<path d="M372.696 67.027C-15.2708 144.941 84.4877 358.881 393.558 111.764C471.474 499.736 685.423 399.974 438.295 90.9017C826.275 12.9858 726.508 -200.962 417.435 46.1665C339.519 -341.813 125.58 -242.045 372.696 67.027Z" stroke="#C8C8C8" stroke-width="0.5" stroke-miterlimit="10"/>
<path d="M371.464 72.9646C6.56694 215.64 140.622 407.092 399.496 113.002C542.171 477.901 733.632 343.841 439.53 84.9659C804.436 -57.7115 670.372 -249.169 411.498 44.9318C268.823 -319.974 77.3715 -185.913 371.464 72.9646Z" stroke="#C8C8C8" stroke-width="0.5" stroke-miterlimit="10"/>
<path d="M371.28 78.9653C40.0163 280.817 203.641 444.449 405.497 113.182C607.35 444.449 770.987 280.817 439.714 78.9653C770.987 -122.892 607.352 -286.524 405.497 44.7502C203.641 -286.524 40.0163 -122.89 371.28 78.9653Z" stroke="#C8C8C8" stroke-width="0.5" stroke-miterlimit="10"/>
<g opacity="0.5">
<path fill-rule="evenodd" clip-rule="evenodd" d="M396.836 77.5815C395.938 77.0268 395.65 75.8928 396.202 75.0134C398.076 72.0445 401.315 70.2623 404.891 70.2623C410.507 70.2623 415.094 74.7109 415.094 80.1409C415.094 85.6054 410.507 90.0391 404.891 90.0391C401.315 90.0391 398.076 88.2607 396.202 85.2671C395.65 84.3964 395.938 83.2685 396.836 82.7237C397.739 82.1776 398.912 82.4666 399.463 83.3473C400.649 85.2019 402.661 86.3162 404.891 86.3162C408.407 86.3162 411.261 83.5526 411.261 80.1409C411.261 76.7451 408.407 73.9693 404.891 73.9693C402.661 73.9693 400.649 75.0774 399.463 76.9665C398.912 77.8324 397.739 78.1165 396.836 77.5815Z" fill="white"/>
<path d="M396.202 75.0134C395.65 75.8928 395.938 77.0268 396.836 77.5815C397.739 78.1165 398.912 77.8324 399.463 76.9665C400.649 75.0774 402.661 73.9693 404.891 73.9693C408.407 73.9693 411.261 76.7451 411.261 80.1409C411.261 83.5527 408.407 86.3162 404.891 86.3162C402.661 86.3162 400.649 85.2019 399.463 83.3473C398.912 82.4666 397.739 82.1776 396.836 82.7237C395.938 83.2685 395.65 84.3964 396.202 85.2671C398.076 88.2607 401.315 90.0392 404.891 90.0392C410.507 90.0392 415.094 85.6054 415.094 80.1409C415.094 74.7109 410.507 70.2623 404.891 70.2623C401.315 70.2623 398.076 72.0445 396.202 75.0134ZM422.055 65.2935C422.274 65.4264 422.451 65.6391 422.511 65.89C424.302 72.272 428.388 93.7166 405.922 101.647C405.802 101.689 405.691 101.713 405.562 101.713H405.507H405.448C405.326 101.713 405.207 101.689 405.081 101.647C382.592 93.7067 386.71 72.272 388.486 65.89C388.558 65.6391 388.736 65.4264 388.959 65.2775C393.908 62.2876 399.621 60.7146 405.499 60.7134H405.513C411.376 60.7146 417.084 62.2877 422.055 65.2935Z" fill="#C8C8C8"/>
<path d="M396.202 75.0134C395.65 75.8928 395.938 77.0268 396.836 77.5815C397.739 78.1165 398.912 77.8324 399.463 76.9665C400.649 75.0774 402.661 73.9693 404.891 73.9693C408.407 73.9693 411.261 76.7451 411.261 80.1409C411.261 83.5527 408.407 86.3162 404.891 86.3162C402.661 86.3162 400.649 85.2019 399.463 83.3473C398.912 82.4666 397.739 82.1776 396.836 82.7237C395.938 83.2685 395.65 84.3964 396.202 85.2671C398.076 88.2607 401.315 90.0392 404.891 90.0392C410.507 90.0392 415.094 85.6054 415.094 80.1409C415.094 74.7109 410.507 70.2623 404.891 70.2623C401.315 70.2623 398.076 72.0445 396.202 75.0134ZM422.055 65.2935C422.274 65.4264 422.451 65.6391 422.511 65.89C424.302 72.272 428.388 93.7166 405.922 101.647C405.802 101.689 405.691 101.713 405.562 101.713H405.507H405.448C405.326 101.713 405.207 101.689 405.081 101.647C382.592 93.7067 386.71 72.272 388.486 65.89C388.558 65.6391 388.736 65.4264 388.959 65.2775C393.908 62.2876 399.621 60.7146 405.499 60.7134H405.513C411.376 60.7146 417.084 62.2877 422.055 65.2935Z" stroke="#C8C8C8"/>
</g>
</g>
</g>
<path d="M134.151 119.902C135.23 119.902 136.042 119.067 136.042 117.772C136.042 116.501 135.266 115.606 134.163 115.606C133.108 115.606 132.272 116.393 132.272 117.772C132.272 118.934 132.988 119.902 134.151 119.902ZM131 112.157H132.32V115.438C132.491 115.159 133.17 114.433 134.37 114.433C136.176 114.433 137.374 115.811 137.374 117.761C137.374 119.697 136.091 121.065 134.285 121.065C133.061 121.065 132.417 120.302 132.248 120.083V120.907H131V112.157Z" fill="#00A3E0"/>
<path d="M139.778 123.072L140.675 120.798L138.165 114.59H139.584L141.293 119.188L142.977 114.59H144.359L141.05 123.072H139.778Z" fill="#00A3E0"/>
<path fill-rule="evenodd" clip-rule="evenodd" d="M190.341 112.275C190.338 111.765 190.049 111.45 189.512 111.45H185.927C183.999 111.45 183.169 112.273 183.169 114.204V118.058C183.169 118.82 182.827 119.16 182.042 119.16H177.377C176.879 119.16 176.549 119.48 176.549 119.992C176.549 120.485 176.866 120.81 177.365 120.81H182.042C183.962 120.81 184.822 119.987 184.822 118.058V114.204C184.822 113.383 185.12 113.104 185.927 113.104H189.512C190.049 113.104 190.338 112.78 190.341 112.275" fill="#231F20"/>
<path fill-rule="evenodd" clip-rule="evenodd" d="M161.655 111.448L153.381 111.449C151.726 111.449 150.623 112.551 150.623 114.204V118.059C150.623 119.711 151.726 120.811 153.381 120.808H160C160.552 120.811 161.102 120.262 161.102 119.711V117.784C161.102 117.306 160.747 116.958 160.294 116.958C159.777 116.958 159.449 117.281 159.449 117.784V119.161H153.381C152.829 119.161 152.277 118.608 152.277 118.059V114.204C152.277 113.652 152.829 113.103 153.381 113.1L161.655 113.103C162.208 113.103 162.76 113.652 162.76 114.204V119.987C162.76 120.42 163.09 120.811 163.587 120.811C164.055 120.811 164.413 120.549 164.413 119.987V114.204C164.413 112.551 163.311 111.449 161.655 111.448Z" fill="#231F20"/>
<path fill-rule="evenodd" clip-rule="evenodd" d="M191.995 118.058C191.995 119.987 192.805 120.81 194.753 120.81H204.957C205.456 120.81 205.786 120.491 205.786 119.981C205.786 119.488 205.467 119.16 204.967 119.16H194.753C193.925 119.147 193.649 118.864 193.649 118.058V114.204C193.649 113.38 193.949 113.102 194.753 113.102H203.028C203.807 113.102 204.131 113.391 204.131 114.204C204.131 115.028 203.842 115.305 203.028 115.305H196.138C195.582 115.305 195.311 115.582 195.311 116.129C195.311 116.66 195.593 116.957 196.138 116.957H203.028C204.98 116.957 205.786 116.129 205.786 114.204C205.786 112.276 204.954 111.45 203.028 111.45H194.753C192.771 111.45 191.995 112.275 191.995 114.204V118.058Z" fill="#231F20"/>
<path fill-rule="evenodd" clip-rule="evenodd" d="M207.44 118.058C207.44 119.987 208.251 120.81 210.198 120.81H219.469C219.967 120.81 220.296 120.491 220.296 119.981C220.296 119.488 220.009 119.16 219.479 119.16H210.198C209.372 119.147 209.093 118.864 209.093 118.058V114.204C209.093 113.399 209.372 113.114 210.198 113.102H219.457C219.957 113.102 220.286 112.786 220.286 112.276C220.286 111.781 219.967 111.45 219.467 111.45H210.198C208.251 111.45 207.44 112.275 207.44 114.204V118.058Z" fill="#231F20"/>
<path fill-rule="evenodd" clip-rule="evenodd" d="M224.877 119.158C224.049 119.146 223.774 118.847 223.774 118.045V114.19C223.774 113.386 224.049 113.113 224.877 113.103H233.151C233.977 113.113 234.254 113.399 234.254 114.203V118.045C234.254 118.847 233.977 119.146 233.151 119.159L224.877 119.158ZM222.12 118.045C222.12 119.974 222.931 120.81 224.877 120.81H233.151C235.098 120.81 235.909 119.974 235.909 118.045V114.19C235.909 112.263 235.098 111.45 233.151 111.45H224.877C222.931 111.45 222.12 112.263 222.12 114.19V118.045Z" fill="#231F20"/>
<path fill-rule="evenodd" clip-rule="evenodd" d="M179.858 112.275C179.855 111.765 179.566 111.45 179.028 111.45H175.444C173.516 111.45 172.684 112.273 172.684 114.204V118.058C172.684 118.82 172.344 119.16 171.559 119.16H166.861C166.366 119.16 166.065 119.48 166.065 119.992C166.065 120.485 166.366 120.81 166.861 120.81H171.559C173.478 120.81 174.339 119.987 174.339 118.058V114.204C174.339 113.383 174.637 113.104 175.444 113.104H179.028C179.568 113.104 179.855 112.78 179.858 112.275" fill="#231F20"/>
<path d="M160.406 88.6113C158.91 89.7312 155.436 92.1308 150.573 92.1308C142.556 92.1308 137.319 86.0517 137.319 78.3196C137.319 70.5875 142.717 64.5084 150.519 64.5084C154.902 64.5084 158.322 66.5881 159.925 67.8146L161.689 62.5887C159.498 60.9357 155.65 58.9626 150.359 58.9626C139.403 58.9626 131.173 67.3347 131.173 78.3196C131.173 89.3046 139.082 97.6766 150.412 97.6766C156.184 97.6766 160.3 95.2236 162.17 93.7839L160.406 88.6113Z" fill="#231F20"/>
<path d="M166.577 83.1722C166.577 91.5975 172.349 97.6766 181.06 97.6766C187.688 97.6766 191.375 93.8905 192.711 91.5975L188.863 88.718C187.794 90.2644 185.389 92.6107 181.167 92.6107C176.197 92.6107 172.616 89.4112 172.509 84.452H193.513C193.566 83.9721 193.566 83.4921 193.566 83.0122C193.566 74.2669 188.596 68.4545 180.152 68.4545C172.509 68.4545 166.577 74.5335 166.577 83.1722ZM172.723 80.4526C173.097 76.08 176.197 73.3071 180.205 73.3071C184.214 73.3071 187.42 75.8667 187.634 80.4526H172.723Z" fill="#231F20"/>
<path d="M212.994 68.4545C209.04 68.4545 206.1 70.7475 205.031 73.5204V69.1477H199.313V96.9834H205.138V84.9852C205.138 78.9595 206.902 74.3202 212.994 74.3202V68.4545Z" fill="#231F20"/>
<path d="M220.487 69.1477H217.387V73.947H220.487V85.9984C220.487 92.824 222.518 97.3566 229.305 97.3566C231.122 97.3566 232.137 97.1433 232.137 97.1433V92.1308C232.137 92.1308 231.496 92.1841 231.015 92.1841C227.915 92.1841 226.259 91.2243 226.259 86.9049V73.947H231.924V69.1477H226.259V63.3353H220.487V69.1477Z" fill="#231F20"/>
<path d="M247.393 97.6766C251.134 97.6766 254.02 95.5969 255.249 93.3573V96.9834H260.968V69.1477H255.143V85.9451C255.143 89.7845 252.738 92.4507 249.05 92.4507C245.843 92.4507 243.438 90.2111 243.438 86.3717V69.1477H237.666V85.8918C237.666 91.9708 240.178 97.6766 247.393 97.6766Z" fill="#231F20"/>
<path d="M307.721 78.7995C307.721 72.7738 304.514 68.4545 298.208 68.4545C294.36 68.4545 291.26 70.1609 289.603 73.0938C288.267 70.2675 285.488 68.4545 281.587 68.4545C277.792 68.4545 275.067 70.6408 274.051 72.7738C274.051 72.7738 274.051 71.494 274.051 69.1477H268.333V96.9834H274.158V80.2393C274.158 76.2399 276.617 73.6803 279.77 73.6803C283.083 73.6803 285.114 75.9733 285.114 79.7594V96.9834H290.939V80.346C290.939 76.08 293.344 73.6803 296.605 73.6803C300.078 73.6803 301.949 75.9733 301.949 80.2926V96.9834H307.721V78.7995Z" fill="#231F20"/>
<path d="M131.532 44.245C131.931 45.423 133.109 47.247 135.826 47.247C138.448 47.247 140.063 45.575 140.063 43.352C140.063 39.172 134.04 39.647 134.04 37.025C134.04 36.113 134.705 35.391 135.883 35.391C137.194 35.391 137.802 36.303 138.106 36.949L139.854 36.17C139.531 35.239 138.448 33.453 135.921 33.453C133.47 33.453 131.931 34.973 131.931 37.044C131.931 41.319 137.916 40.692 137.916 43.504C137.916 44.625 137.118 45.29 135.921 45.29C134.458 45.29 133.679 44.359 133.318 43.409L131.532 44.245ZM142.147 47H148.911V45.1H144.256V41.186H148.132V39.305H144.256V35.6H148.721V33.7H142.147V47ZM160.891 44.017C160.359 44.416 159.124 45.271 157.395 45.271C154.545 45.271 152.683 43.105 152.683 40.35C152.683 37.595 154.602 35.429 157.376 35.429C158.934 35.429 160.15 36.17 160.72 36.607L161.347 34.745C160.568 34.156 159.2 33.453 157.319 33.453C153.424 33.453 150.498 36.436 150.498 40.35C150.498 44.264 153.31 47.247 157.338 47.247C159.39 47.247 160.853 46.373 161.518 45.86L160.891 44.017ZM168.614 47.247C171.844 47.247 173.744 45.119 173.744 42.098V33.7H171.654V42.079C171.654 44.036 170.571 45.29 168.614 45.29C166.638 45.29 165.574 44.055 165.574 42.098V33.7H163.465V42.117C163.465 45.195 165.289 47.247 168.614 47.247ZM176.454 47H178.563V41.509H180.406L183.199 47H185.536L182.306 41.034C183.655 40.483 184.472 39.153 184.472 37.614C184.472 35.391 182.876 33.7 180.026 33.7H176.454V47ZM178.563 39.704V35.543H179.988C181.527 35.543 182.287 36.379 182.287 37.614C182.287 38.963 181.318 39.704 179.988 39.704H178.563ZM187.216 47H193.98V45.1H189.325V41.186H193.201V39.305H189.325V35.6H193.79V33.7H187.216V47ZM196.289 47H199.424C203.813 47 206.511 44.682 206.511 40.35C206.511 36.189 203.87 33.7 199.424 33.7H196.289V47ZM198.398 45.157V35.562H199.633C202.483 35.562 204.326 37.291 204.326 40.35C204.326 43.523 202.483 45.157 199.633 45.157H198.398ZM213.341 47H217.578C219.953 47 221.891 45.461 221.891 43.086C221.891 41.661 221.093 40.578 219.782 40.027C220.789 39.476 221.454 38.431 221.454 37.158C221.454 35.106 219.839 33.7 217.255 33.7H213.341V47ZM215.45 39.267V35.543H217.312C218.528 35.543 219.288 36.246 219.288 37.367C219.288 38.507 218.471 39.267 217.331 39.267H215.45ZM215.45 45.176V40.996H217.369C218.68 40.996 219.706 41.661 219.706 43.086C219.706 44.473 218.699 45.176 217.369 45.176H215.45ZM226.805 47H228.895V40.844L232.999 33.7H230.662L227.85 38.887L225.095 33.7H222.701L226.805 40.844V47Z" fill="#00A3E0"/>
<rect width="88" height="148" transform="matrix(1 0 0 -1 367 148)" fill="#00A04F"/>
<path d="M367 148L351 138H367V148Z" fill="#00A04F"/>
<path d="M367 148L351 138H367V148Z" fill="black" fill-opacity="0.3"/>
<path d="M367 0L351 10H367V0Z" fill="#00A04F"/>
<path d="M367 0L351 10H367V0Z" fill="black" fill-opacity="0.3"/>
<path fill-rule="evenodd" clip-rule="evenodd" d="M398.5 51C398.5 49.6193 399.619 48.5 401 48.5H421C422.381 48.5 423.5 49.6193 423.5 51V61H398.5V51ZM391.5 61.5184V51C391.5 45.7533 395.753 41.5 401 41.5H421C426.247 41.5 430.5 45.7533 430.5 51V61.5184C435.42 63.0164 439 67.5901 439 73V97C439 103.627 433.627 109 427 109H395C388.373 109 383 103.627 383 97V73C383 67.5901 386.58 63.0164 391.5 61.5184ZM414 89.0004C415.214 88.0882 416 86.6358 416 85C416 82.2386 413.761 80 411 80C408.239 80 406 82.2386 406 85C406 86.6358 406.786 88.0882 408 89.0004V97C408 97.5523 408.448 98 409 98H413C413.552 98 414 97.5523 414 97V89.0004Z" fill="white"/>
<path fill-rule="evenodd" clip-rule="evenodd" d="M88.8604 69.1476C90.6068 68.0247 91.1675 65.7291 90.093 63.9489C86.4471 57.9385 80.1434 54.3308 73.1851 54.3308C62.2574 54.3308 53.3304 63.3364 53.3304 74.3289C53.3304 85.3911 62.2574 94.3668 73.1851 94.3668C80.1434 94.3668 86.4471 90.7666 90.093 84.7064C91.1675 82.9436 90.6068 80.6605 88.8604 79.5575C87.1017 78.452 84.8193 79.0371 83.7473 80.8198C81.4402 84.5744 77.5251 86.8302 73.1851 86.8302C66.3429 86.8302 60.7901 81.2356 60.7901 74.3289C60.7901 67.4546 66.3429 61.8351 73.1851 61.8351C77.5251 61.8351 81.4402 64.0784 83.7473 67.9027C84.8193 69.6555 87.1017 70.2307 88.8604 69.1476Z" fill="white"/>
<path d="M90.093 63.9489C91.1675 65.7291 90.6067 68.0247 88.8604 69.1476C87.1017 70.2307 84.8193 69.6555 83.7473 67.9027C81.4402 64.0784 77.5251 61.8351 73.1851 61.8351C66.3429 61.8351 60.7901 67.4546 60.7901 74.3289C60.7901 81.2356 66.3429 86.8302 73.1851 86.8302C77.5251 86.8302 81.4402 84.5744 83.7473 80.8198C84.8193 79.0371 87.1017 78.452 88.8604 79.5575C90.6067 80.6605 91.1675 82.9436 90.093 84.7064C86.4471 90.7666 80.1434 94.3668 73.1851 94.3668C62.2573 94.3668 53.3304 85.3911 53.3304 74.3289C53.3304 63.3364 62.2573 54.3308 73.1851 54.3308C80.1434 54.3308 86.4471 57.9385 90.093 63.9489ZM39.7843 44.272C39.3594 44.5409 39.0136 44.9716 38.8975 45.4796C35.4122 58.3991 27.4609 101.811 71.1793 117.866C71.4115 117.95 71.6289 118 71.8784 118H71.9871H72.1007C72.3378 118 72.57 117.95 72.8146 117.866C116.577 101.791 108.564 58.3991 105.109 45.4796C104.968 44.9716 104.622 44.5409 104.187 44.2396C94.5564 38.1869 83.441 35.0025 72.0019 35H71.9747C60.5653 35.0025 49.4572 38.1869 39.7843 44.272Z" fill="#00A3E0"/>
<defs>
<clipPath id="clip0_99:429">
<rect width="492" height="128" rx="12" transform="matrix(-1 0 0 1 492 10)" fill="white"/>
</clipPath>
</defs>
</svg>
