<svg id="图层_1" data-name="图层 1" xmlns="http://www.w3.org/2000/svg" viewBox="0 0 328 92"><defs><style>.cls-1{fill:none;}.cls-2{fill:#1db0e5;}</style></defs><title>CA-LOGO</title><rect class="cls-1" width="328" height="92"/><path id="_复合路径_" data-name="&lt;复合路径&gt;" class="cls-2" d="M56.39,16.29a1.35,1.35,0,0,0-.53.69C53.85,24.33,49.3,49,74.38,58.2a1.17,1.17,0,0,0,.42.05h.11c.16,0,.26-.05.42-.05C100.47,49,95.87,24.33,93.85,17a1.35,1.35,0,0,0-.53-.69A34.39,34.39,0,0,0,74.86,11h0A34.53,34.53,0,0,0,56.39,16.29ZM85.28,27.46a2.15,2.15,0,0,1-.69,3,2.12,2.12,0,0,1-2.91-.69,7,7,0,0,0-6.08-3.44A7.09,7.09,0,1,0,81.69,37a2.15,2.15,0,0,1,2.91-.74,2.09,2.09,0,0,1,.69,2.91A11.37,11.37,0,1,1,75.6,21.9,11.73,11.73,0,0,1,85.28,27.46Z"/><path d="M138.51,55.29A18.87,18.87,0,0,1,127.14,59c-11,0-18.57-8.1-18.57-18.73s7.94-18.73,18.52-18.73a18.18,18.18,0,0,1,11,3.49l-1.69,5.08a15.53,15.53,0,0,0-9.1-3.17c-7.51,0-12.75,5.87-12.75,13.39s5.08,13.39,12.8,13.39a15.81,15.81,0,0,0,9.47-3.39Z"/><path d="M154.81,30.79c8.15,0,13,5.61,13,14.07a11.51,11.51,0,0,1-.05,1.38H147.45c.11,4.81,3.54,7.88,8.36,7.88a8.73,8.73,0,0,0,7.41-3.76l3.7,2.8c-1.27,2.22-4.87,5.87-11.27,5.87-8.41,0-14-5.87-14-14C141.69,36.66,147.45,30.79,154.81,30.79Zm7.25,11.59a6.84,6.84,0,0,0-7.2-6.93,7.07,7.07,0,0,0-7.2,6.93Z"/><path d="M185.49,36.45c-5.87,0-7.57,4.5-7.57,10.32V58.35h-5.61V31.42h5.5v4.23a8,8,0,0,1,7.67-4.92v5.71Z"/><path d="M191.69,25.81h5.56v5.61h5.45v4.66h-5.45V48.62c0,4.18,1.59,5.13,4.6,5.13.48,0,1.06-.05,1.06-.05v4.87a14.75,14.75,0,0,1-2.75.21c-6.56,0-8.52-4.39-8.52-11V36.13h-3V31.48h3V25.81Z"/><path d="M207.24,47.67V31.42h5.56V48.09c0,3.7,2.33,5.87,5.4,5.87,3.54,0,5.87-2.59,5.87-6.3V31.42h5.61V58.35h-5.5V54.86A8.61,8.61,0,0,1,216.61,59C209.62,59,207.24,53.54,207.24,47.67Z"/><path d="M273.8,58.35h-5.56V42.22c0-4.18-1.8-6.4-5.19-6.4-3.12,0-5.45,2.33-5.45,6.46V58.35H252V41.69c0-3.65-2-5.87-5.19-5.87-3.07,0-5.4,2.49-5.4,6.35V58.35h-5.61V31.42h5.5v3.49a8,8,0,0,1,7.25-4.18c3.76,0,6.46,1.75,7.72,4.5a9.1,9.1,0,0,1,8.31-4.5c6.08,0,9.21,4.18,9.21,10V58.35Z"/><path class="cls-2" d="M107.56,70.42h1.27v3.17a2.31,2.31,0,0,1,2-1,3.21,3.21,0,0,1-.05,6.4,2.45,2.45,0,0,1-2-1v.79h-1.22Zm3.07,7.51a1.87,1.87,0,0,0,1.85-2.06,1.91,1.91,0,0,0-1.8-2.12,2.11,2.11,0,0,0-.05,4.18Z"/><path class="cls-2" d="M116.08,81l.85-2.22-2.43-6h1.38l1.64,4.44,1.64-4.44h1.32l-3.17,8.2h-1.22Z"/><g id="_编组_" data-name="&lt;编组&gt;"><path id="_路径_" data-name="&lt;路径&gt;" d="M164.91,70.52a.72.72,0,0,0-.79-.79h-3.44c-1.85,0-2.65.79-2.65,2.65v3.76c0,.74-.32,1.06-1.11,1.06h-4.5a.79.79,0,0,0,0,1.59h4.5c1.85,0,2.7-.79,2.7-2.65V72.38c0-.79.26-1.06,1.06-1.06h3.44a.75.75,0,0,0,.79-.79Z"/><path id="_路径_2" data-name="&lt;路径&gt;" d="M137.19,69.73h-8a2.5,2.5,0,0,0-2.65,2.65v3.76a2.5,2.5,0,0,0,2.65,2.65h6.4a1.14,1.14,0,0,0,1.06-1.06V75.87a.79.79,0,0,0-1.59,0v1.32H129.2a1.14,1.14,0,0,1-1.06-1.06V72.38a1.14,1.14,0,0,1,1.06-1.06h8a1.14,1.14,0,0,1,1.06,1.06V78a.78.78,0,0,0,.79.79.72.72,0,0,0,.79-.79V72.38a2.5,2.5,0,0,0-2.65-2.65Z"/><path id="_路径_3" data-name="&lt;路径&gt;" d="M166.5,76.13c0,1.85.79,2.65,2.65,2.65H179a.79.79,0,1,0,0-1.59h-9.84c-.79,0-1.06-.26-1.06-1.06V72.38c0-.79.26-1.06,1.06-1.06h8c.74,0,1.06.26,1.06,1.06s-.26,1.06-1.06,1.06h-6.67a.79.79,0,1,0,0,1.59h6.67c1.9,0,2.65-.79,2.65-2.65s-.79-2.65-2.65-2.65h-8c-1.9,0-2.65.79-2.65,2.65v3.76Z"/><path id="_路径_4" data-name="&lt;路径&gt;" d="M181.42,76.13c0,1.85.79,2.65,2.65,2.65H193a.75.75,0,0,0,.79-.79.72.72,0,0,0-.79-.79h-8.94c-.79,0-1.06-.26-1.06-1.06V72.38c0-.79.26-1.06,1.06-1.06H193a.79.79,0,0,0,0-1.59h-8.94c-1.9,0-2.65.79-2.65,2.65v3.76Z"/><path id="_复合路径_2" data-name="&lt;复合路径&gt;" d="M195.6,76.13c0,1.85.79,2.7,2.65,2.7h8c1.9,0,2.65-.79,2.65-2.7v-3.7c0-1.85-.79-2.65-2.65-2.65h-8c-1.9,0-2.65.79-2.65,2.65v3.7Zm2.65,1.06c-.79,0-1.06-.32-1.06-1.06v-3.7c0-.79.26-1.06,1.06-1.06h8c.79,0,1.06.26,1.06,1.06v3.7c0,.79-.26,1.06-1.06,1.06Z"/><path id="_路径_5" data-name="&lt;路径&gt;" d="M154.75,70.52a.72.72,0,0,0-.79-.79h-3.44c-1.85,0-2.65.79-2.65,2.65v3.76c0,.74-.32,1.06-1.11,1.06h-4.55a.75.75,0,0,0-.79.79.72.72,0,0,0,.79.79h4.55c1.85,0,2.7-.79,2.7-2.65V72.38c0-.79.26-1.06,1.06-1.06H154a.72.72,0,0,0,.79-.79Z"/></g></svg>