<?xml version="1.0" encoding="utf-8"?>
<!-- Generator: Adobe Illustrator 25.4.1, SVG Export Plug-In . SVG Version: 6.00 Build 0)  -->
<svg version="1.1" id="图层_1" xmlns="http://www.w3.org/2000/svg" xmlns:xlink="http://www.w3.org/1999/xlink" x="0px" y="0px"
	 viewBox="0 0 328 92" style="enable-background:new 0 0 328 92;" xml:space="preserve">
<style type="text/css">
	.st0{fill:none;}
	.st1{fill:#1DB0E5;}
	.st2{fill:#FFFFFF;}
</style>
<rect class="st0" width="328" height="92"/>
<path id="_复合路径_" class="st1" d="M56.4,16.3c-0.2,0.2-0.4,0.4-0.5,0.7c-2,7.3-6.6,32,18.5,41.2c0.1,0,0.3,0.1,0.4,0h0.1
	c0.2,0,0.3,0,0.4,0C100.5,49,95.9,24.3,93.8,17c-0.1-0.3-0.3-0.5-0.5-0.7C87.8,12.8,81.4,11,74.9,11l0,0
	C68.3,11,61.9,12.8,56.4,16.3z M85.3,27.5c0.6,1,0.4,2.3-0.6,3c0,0,0,0,0,0c-1,0.6-2.3,0.3-2.9-0.7c-1.3-2.1-3.6-3.5-6.1-3.4
	c-3.9,0-7.1,3.1-7.1,7.1s3.1,7.1,7.1,7.1c2.5,0,4.9-1.3,6.1-3.5c0.6-1,1.9-1.3,2.9-0.7c1,0.6,1.3,1.9,0.7,2.9c0,0,0,0,0,0
	C82,44.5,75,46.2,69.7,43c-5.4-3.3-7.1-10.3-3.8-15.6c2.1-3.4,5.8-5.5,9.7-5.5C79.6,22,83.2,24.1,85.3,27.5z"/>
<path class="st2" d="M138.5,55.3c-3.3,2.4-7.3,3.7-11.4,3.7c-11,0-18.6-8.1-18.6-18.7s7.9-18.7,18.5-18.7c3.9-0.1,7.8,1.2,11,3.5
	l-1.7,5.1c-2.6-2-5.8-3.1-9.1-3.2c-7.5,0-12.8,5.9-12.8,13.4s5.1,13.4,12.8,13.4c3.4-0.1,6.8-1.3,9.5-3.4L138.5,55.3z"/>
<path class="st2" d="M154.8,30.8c8.1,0,13,5.6,13,14.1c0,0.5,0,0.9-0.1,1.4h-20.3c0.1,4.8,3.5,7.9,8.4,7.9c2.9,0.1,5.7-1.3,7.4-3.8
	l3.7,2.8c-1.3,2.2-4.9,5.9-11.3,5.9c-8.4,0-14-5.9-14-14C141.7,36.7,147.4,30.8,154.8,30.8z M162.1,42.4c0.1-3.8-3-6.9-6.7-6.9
	c-0.2,0-0.3,0-0.5,0c-3.9-0.1-7.1,3-7.2,6.9H162.1z"/>
<path class="st2" d="M185.5,36.5c-5.9,0-7.6,4.5-7.6,10.3v11.6h-5.6V31.4h5.5v4.2c1.3-3.1,4.3-5,7.7-4.9L185.5,36.5L185.5,36.5z"/>
<path class="st2" d="M191.7,25.8h5.6v5.6h5.4v4.7h-5.4v12.5c0,4.2,1.6,5.1,4.6,5.1c0.5,0,1.1,0,1.1,0v4.9c-0.9,0.2-1.8,0.2-2.8,0.2
	c-6.6,0-8.5-4.4-8.5-11V36.1h-3v-4.7h3L191.7,25.8L191.7,25.8z"/>
<path class="st2" d="M207.2,47.7V31.4h5.6v16.7c0,3.7,2.3,5.9,5.4,5.9c3.5,0,5.9-2.6,5.9-6.3V31.4h5.6v26.9h-5.5v-3.5
	c-1.6,2.6-4.5,4.2-7.6,4.1C209.6,59,207.2,53.5,207.2,47.7z"/>
<path class="st2" d="M273.8,58.3h-5.6V42.2c0-4.2-1.8-6.4-5.2-6.4c-3.1,0-5.5,2.3-5.5,6.5v16.1H252V41.7c0-3.7-2-5.9-5.2-5.9
	c-3.1,0-5.4,2.5-5.4,6.3v16.2h-5.6V31.4h5.5v3.5c1.4-2.6,4.2-4.3,7.2-4.2c3.8,0,6.5,1.8,7.7,4.5c1.7-2.9,4.9-4.7,8.3-4.5
	c6.1,0,9.2,4.2,9.2,10L273.8,58.3L273.8,58.3z"/>
<path class="st1" d="M107.6,70.4h1.3v3.2c0.5-0.7,1.2-1,2-1c1.8,0.2,3.1,1.7,2.9,3.5c-0.1,1.6-1.4,2.8-3,2.9c-0.8,0-1.5-0.4-2-1v0.8
	h-1.2L107.6,70.4z M110.6,77.9c1,0,1.9-0.8,1.9-1.9c0-0.1,0-0.1,0-0.2c0.1-1-0.6-2-1.7-2.1c0,0-0.1,0-0.1,0c-1.2,0.1-2,1.2-1.8,2.4
	C109,77,109.7,77.8,110.6,77.9z"/>
<path class="st1" d="M116.1,81l0.8-2.2l-2.4-6h1.4l1.6,4.4l1.6-4.4h1.3l-3.2,8.2L116.1,81L116.1,81z"/>
<g id="_编组_">
	<path id="_路径_" class="st2" d="M164.9,70.5c0-0.4-0.2-0.7-0.6-0.8c0,0-0.1,0-0.1,0h-3.4c-1.9,0-2.6,0.8-2.6,2.7v3.8
		c0,0.7-0.3,1.1-1.1,1.1h-4.5c-0.4,0-0.8,0.4-0.8,0.8s0.4,0.8,0.8,0.8h4.5c1.9,0,2.7-0.8,2.7-2.7v-3.8c0-0.8,0.3-1.1,1.1-1.1h3.4
		C164.5,71.3,164.9,71,164.9,70.5C164.9,70.6,164.9,70.6,164.9,70.5L164.9,70.5z"/>
	<path id="_路径_2" class="st2" d="M137.2,69.7h-8c-1.4-0.1-2.6,1-2.7,2.3c0,0.1,0,0.2,0,0.3v3.8c-0.1,1.4,1,2.6,2.3,2.7
		c0.1,0,0.2,0,0.3,0h6.4c0.6,0,1-0.5,1.1-1.1v-1.9c0-0.4-0.4-0.8-0.8-0.8s-0.8,0.4-0.8,0.8v1.3h-5.9c-0.6,0-1-0.5-1.1-1.1v-3.8
		c0-0.6,0.5-1,1.1-1.1h8c0.6,0,1,0.5,1.1,1.1V78c0,0.4,0.3,0.8,0.8,0.8c0,0,0,0,0,0c0.4,0,0.7-0.2,0.8-0.6c0,0,0-0.1,0-0.1v-5.6
		c0.1-1.4-1-2.6-2.3-2.7C137.4,69.7,137.3,69.7,137.2,69.7L137.2,69.7z"/>
	<path id="_路径_3" class="st2" d="M166.5,76.1c0,1.8,0.8,2.7,2.6,2.7h9.9c0.4,0,0.8-0.4,0.8-0.8s-0.4-0.8-0.8-0.8h-9.8
		c-0.8,0-1.1-0.3-1.1-1.1v-3.8c0-0.8,0.3-1.1,1.1-1.1h8c0.7,0,1.1,0.3,1.1,1.1s-0.3,1.1-1.1,1.1h-6.7c-0.4,0-0.8,0.4-0.8,0.8
		s0.4,0.8,0.8,0.8h6.7c1.9,0,2.6-0.8,2.6-2.7s-0.8-2.7-2.6-2.7h-8c-1.9,0-2.6,0.8-2.6,2.7L166.5,76.1L166.5,76.1z"/>
	<path id="_路径_4" class="st2" d="M181.4,76.1c0,1.8,0.8,2.7,2.6,2.7h8.9c0.4,0,0.8-0.3,0.8-0.7c0,0,0-0.1,0-0.1
		c0-0.4-0.2-0.7-0.6-0.8c0,0-0.1,0-0.1,0h-8.9c-0.8,0-1.1-0.3-1.1-1.1v-3.8c0-0.8,0.3-1.1,1.1-1.1h8.9c0.4,0,0.8-0.4,0.8-0.8
		s-0.4-0.8-0.8-0.8h-8.9c-1.9,0-2.6,0.8-2.6,2.7L181.4,76.1L181.4,76.1z"/>
	<path id="_复合路径_2" class="st2" d="M195.6,76.1c0,1.8,0.8,2.7,2.6,2.7h8c1.9,0,2.6-0.8,2.6-2.7v-3.7c0-1.8-0.8-2.7-2.6-2.7
		h-8c-1.9,0-2.6,0.8-2.6,2.7V76.1z M198.2,77.2c-0.8,0-1.1-0.3-1.1-1.1v-3.7c0-0.8,0.3-1.1,1.1-1.1h8c0.8,0,1.1,0.3,1.1,1.1v3.7
		c0,0.8-0.3,1.1-1.1,1.1H198.2z"/>
	<path id="_路径_5" class="st2" d="M154.8,70.5c0-0.4-0.2-0.7-0.6-0.8c0,0-0.1,0-0.1,0h-3.4c-1.9,0-2.6,0.8-2.6,2.7v3.8
		c0,0.7-0.3,1.1-1.1,1.1h-4.6c-0.4,0-0.8,0.3-0.8,0.7c0,0,0,0.1,0,0.1c0,0.4,0.2,0.7,0.6,0.8c0,0,0.1,0,0.1,0h4.6
		c1.9,0,2.7-0.8,2.7-2.7v-3.8c0-0.8,0.3-1.1,1.1-1.1h3.5c0.4,0,0.7-0.2,0.8-0.6C154.8,70.6,154.8,70.6,154.8,70.5L154.8,70.5z"/>
</g>
</svg>
