<svg width="72" height="40" viewBox="0 0 72 40" fill="none"
     xmlns="http://www.w3.org/2000/svg">
    <path d="M37.1675 17.6513L33.4421 17.9314L31.1138 23.1602L35.9567 25.0276L37.2606 28.1088L38.2851 33.6177L41.3585 32.3105L45.5495 23.3469L41.4516 19.1452L37.1675 17.6513Z"
          stroke="#00A3E0" stroke-width="2.5" stroke-miterlimit="10"
          stroke-linejoin="round"/>
    <path d="M43.5939 4.1126L46.0154 4.67282L55.2356 2.33856L71.0684 4.95293L69.2989 7.56731L65.3872 8.78112V11.022L62.5001 14.1966L61.3825 18.0248L55.3288 19.8922L52.8141 22.5066L48.1574 18.3983L46.2948 19.2386L43.687 16.2508L41.1724 14.1032L39.1234 14.7568L37.5402 13.4496L35.4912 14.1032L34.1873 14.4767L33.3491 12.8894L36.8882 10.0883L40.4273 9.43472L35.7706 6.72697L36.4225 4.39271L43.5939 4.1126Z"
          stroke="#00A3E0" stroke-width="2.5" stroke-miterlimit="10"
          stroke-linejoin="round"/>
    <path d="M11.649 18.585L14.443 17.7447L15.1881 18.6784L15.84 18.4917L16.9576 16.064L21.5212 13.7298L21.0555 10.9287C21.0555 10.9287 17.7027 10.8353 17.5164 10.0883C17.237 8.96788 18.7271 8.68777 18.7271 8.68777L20.4967 8.22091L21.9868 7.28721L23.8495 8.5944L24.7809 10.9287L28.8788 8.78114C28.8788 8.78114 29.5307 8.5944 29.5307 8.22091L29.9032 5.23306L20.8692 2.52532L12.3009 1.59161L2.05615 5.32643L2.61496 8.5944L8.94807 9.90158C8.94807 11.022 8.85494 12.6093 8.203 13.0762C7.73733 13.3563 7.27166 16.811 7.27166 16.811L8.7618 20.079L13.4185 25.121L12.2078 26.3348L17.4233 37.9127L19.5654 38.6597C20.4036 38.9398 19.0997 38.0995 19.1928 36.6055L24.9671 26.4282L16.6782 22.4132H15.0949L11.649 18.585Z"
          stroke="#00A3E0" stroke-width="2.5" stroke-miterlimit="10"
          stroke-linejoin="round"/>
    <path d="M63.3382 25.2143L61.9412 24.5607L57.8433 27.3618L58.5883 30.7232L62.0343 29.7895L64.8283 31.5635L66.8772 32.2171L68.088 27.8287L65.294 24.4673L63.3382 25.2143Z"
          stroke="#00A3E0" stroke-width="2.5" stroke-miterlimit="10"
          stroke-linejoin="round"/>
</svg>
