<svg width="69" height="66" viewBox="0 0 69 66" fill="none"
     xmlns="http://www.w3.org/2000/svg">
    <path fill-rule="evenodd" clip-rule="evenodd"
          d="M53.2608 16.8161C53.9387 16.1193 55.1116 16.7017 54.9663 17.6629L54.7075 19.3749C54.6442 19.7941 54.852 20.2077 55.2262 20.407L56.6318 21.1557C57.4659 21.6001 57.2751 22.8467 56.3462 23.0211L54.6569 23.3385C54.2505 23.4148 53.933 23.7334 53.8581 24.1401L53.5091 26.0337C53.3372 26.9668 52.0839 27.1583 51.6412 26.319L50.8134 24.7496C50.6129 24.3696 50.1922 24.1601 49.7682 24.2291L48.2557 24.4752C47.3117 24.6288 46.7114 23.4969 47.3681 22.8016L48.6436 21.4511C48.9218 21.1566 48.9947 20.7233 48.8284 20.3539L48.0721 18.6744C47.6839 17.8122 48.5986 16.9426 49.4401 17.3739L50.9698 18.1579C51.3606 18.3582 51.8364 18.2801 52.1426 17.9654L53.2608 16.8161ZM35.9298 8.4068C36.6077 7.71005 37.7806 8.29242 37.6353 9.25362L37.3765 10.9657C37.3132 11.3848 37.521 11.7984 37.8951 11.9977L39.3007 12.7465C40.1349 13.1908 39.9441 14.4374 39.0152 14.6119L37.3259 14.9292C36.9195 15.0055 36.602 15.3241 36.5271 15.7308L36.1781 17.6244C36.0062 18.5575 34.7529 18.749 34.3102 17.9097L33.4823 16.3403C33.2819 15.9603 32.8612 15.7508 32.4372 15.8198L30.9247 16.0659C29.9807 16.2196 29.3804 15.0876 30.0371 14.3923L31.3126 13.0419C31.5907 12.7473 31.6637 12.3141 31.4974 11.9446L30.7411 10.2651C30.3529 9.40289 31.2676 8.53331 32.1091 8.96462L33.6388 9.74865C34.0296 9.94896 34.5054 9.87084 34.8116 9.55608L35.9298 8.4068ZM18.2446 20.5949C18.3899 19.6337 17.217 19.0513 16.5391 19.7481L15.4209 20.8974C15.1147 21.2121 14.6389 21.2903 14.2481 21.0899L12.7184 20.3059C11.8768 19.8746 10.9622 20.7442 11.3504 21.6064L12.1067 23.2859C12.273 23.6553 12.2 24.0886 11.9218 24.3832L10.6464 25.7336C9.98965 26.4289 10.59 27.5609 11.534 27.4072L13.0465 27.1611C13.4705 27.0921 13.8912 27.3016 14.0916 27.6816L14.9195 29.251C15.3622 30.0903 16.6154 29.8988 16.7874 28.9657L17.1364 27.0721C17.2113 26.6654 17.5288 26.3468 17.9352 26.2705L19.6245 25.9532C20.5533 25.7787 20.7441 24.5321 19.91 24.0878L18.5044 23.339C18.1303 23.1397 17.9224 22.7261 17.9858 22.307L18.2446 20.5949ZM18.7717 40.9164C19.4496 40.2197 20.6225 40.802 20.4772 41.7632L20.2183 43.4753C20.155 43.8944 20.3628 44.308 20.737 44.5073L22.1426 45.2561C22.9767 45.7004 22.7859 46.947 21.857 47.1215L20.1677 47.4388C19.7614 47.5151 19.4439 47.8337 19.3689 48.2404L19.02 50.134C18.848 51.0671 17.5947 51.2586 17.152 50.4193L16.3242 48.8499C16.1237 48.4699 15.7031 48.2604 15.2791 48.3294L13.7665 48.5756C12.8225 48.7292 12.2222 47.5972 12.8789 46.9019L14.1544 45.5515C14.4326 45.2569 14.5056 44.8237 14.3392 44.4542L13.583 42.7747C13.1947 41.9125 14.1094 41.0429 14.9509 41.4742L16.4806 42.2583C16.8714 42.4586 17.3472 42.3805 17.6535 42.0657L18.7717 40.9164ZM39.479 49.8139C39.6243 48.8527 38.4514 48.2704 37.7735 48.9671L36.6553 50.1164C36.349 50.4312 35.8733 50.5093 35.4824 50.309L33.9527 49.5249C33.1112 49.0936 32.1965 49.9632 32.5848 50.8254L33.341 52.505C33.5074 52.8744 33.4344 53.3076 33.1562 53.6022L31.8807 54.9526C31.224 55.6479 31.8243 56.7799 32.7683 56.6263L34.2809 56.3801C34.7049 56.3111 35.1256 56.5206 35.326 56.9006L36.1538 58.47C36.5965 59.3093 37.8498 59.1179 38.0218 58.1847L38.3707 56.2911C38.4457 55.8844 38.7632 55.5659 39.1696 55.4895L40.8589 55.1722C41.7877 54.9977 41.9785 53.7511 41.1444 53.3068L39.7388 52.558C39.3646 52.3587 39.1568 51.9451 39.2202 51.526L39.479 49.8139ZM55.0937 36.7439C55.7716 36.0472 56.9445 36.6296 56.7992 37.5908L56.5404 39.3028C56.477 39.722 56.6848 40.1356 57.059 40.3349L58.4646 41.0836C59.2987 41.5279 59.1079 42.7745 58.1791 42.949L56.4898 43.2663C56.0834 43.3427 55.7659 43.6613 55.691 44.0679L55.342 45.9616C55.17 46.8947 53.9167 47.0861 53.4741 46.2469L52.6462 44.6774C52.4458 44.2975 52.0251 44.088 51.6011 44.157L50.0885 44.4031C49.1446 44.5567 48.5442 43.4247 49.2009 42.7294L50.4764 41.379C50.7546 41.0845 50.8276 40.6512 50.6612 40.2818L49.905 38.6023C49.5167 37.74 50.4314 36.8705 51.2729 37.3018L52.8026 38.0858C53.1935 38.2861 53.6692 38.208 53.9755 37.8932L55.0937 36.7439Z"
          fill="#00A3E0"/>
</svg>
