<svg width="251" height="99" viewBox="0 0 251 99" fill="none" xmlns="http://www.w3.org/2000/svg"><path d="M79.8851 79.9804C80.8099 79.9804 81.5069 79.2773 81.5069 78.1867C81.5069 77.1159 80.8413 76.3622 79.8952 76.3622C78.9906 76.3622 78.2734 77.0246 78.2734 78.1867C78.2734 79.165 78.8874 79.9804 79.8851 79.9804ZM77.1826 73.4569H78.3149V76.2203C78.4609 75.9859 79.0434 75.374 80.0726 75.374C81.6214 75.374 82.6493 76.5349 82.6493 78.1769C82.6493 79.8077 81.5484 80.96 79.9996 80.96C78.9503 80.96 78.398 80.3172 78.2533 80.1334V80.8267H77.1826V73.4569Z" fill="#00A3E0"/><path d="M84.7103 82.6514L85.4803 80.7355L83.3276 75.5061H84.5443L86.01 79.3797L87.4543 75.5061H88.6395L85.8011 82.6514H84.7103Z" fill="#00A3E0"/><path fill-rule="evenodd" clip-rule="evenodd" d="M128.073 73.5559C128.07 73.1266 127.823 72.8614 127.362 72.8614H124.287C122.634 72.8614 121.922 73.5547 121.922 75.1806V78.4276C121.922 79.0691 121.629 79.3553 120.956 79.3553H116.955C116.528 79.3553 116.245 79.6255 116.245 80.056C116.245 80.4717 116.517 80.7456 116.945 80.7456H120.956C122.603 80.7456 123.34 80.0523 123.34 78.4276V75.1806C123.34 74.4898 123.595 74.2542 124.287 74.2542H127.362C127.823 74.2542 128.07 73.9815 128.073 73.5559Z" fill="white"/><path fill-rule="evenodd" clip-rule="evenodd" d="M103.472 72.8599L96.3761 72.8611C94.9569 72.8611 94.0107 73.7888 94.0107 75.1816V78.4286C94.0107 79.8201 94.9569 80.7466 96.3761 80.7441H102.053C102.526 80.7466 102.998 80.284 102.998 79.8201V78.1966C102.998 77.7945 102.693 77.5009 102.304 77.5009C101.862 77.5009 101.58 77.7735 101.58 78.1966V79.3563H96.3761C95.903 79.3563 95.4299 78.8912 95.4299 78.4286V75.1816C95.4299 74.7165 95.903 74.2539 96.3761 74.2514L103.472 74.2539C103.946 74.2539 104.419 74.7165 104.419 75.1816V80.052C104.419 80.4172 104.702 80.7466 105.129 80.7466C105.53 80.7466 105.837 80.5258 105.837 80.052V75.1816C105.837 73.7888 104.892 72.8611 103.472 72.8599Z" fill="white"/><path fill-rule="evenodd" clip-rule="evenodd" d="M129.491 78.4276C129.491 80.0523 130.186 80.7456 131.857 80.7456H140.607C141.035 80.7456 141.318 80.4767 141.318 80.0474C141.318 79.6316 141.045 79.3553 140.616 79.3553H131.857C131.146 79.3442 130.909 79.1061 130.909 78.4276V75.1806C130.909 74.4873 131.167 74.2529 131.857 74.2529H138.952C139.621 74.2529 139.899 74.496 139.899 75.1806C139.899 75.8752 139.651 76.1083 138.952 76.1083H133.044C132.567 76.1083 132.335 76.3415 132.335 76.8029C132.335 77.2495 132.576 77.4999 133.044 77.4999H138.952C140.627 77.4999 141.318 76.8029 141.318 75.1806C141.318 73.5572 140.604 72.8614 138.952 72.8614H131.857C130.157 72.8614 129.491 73.5559 129.491 75.1806V78.4276Z" fill="white"/><path fill-rule="evenodd" clip-rule="evenodd" d="M142.736 78.4276C142.736 80.0523 143.432 80.7456 145.102 80.7456H153.052C153.48 80.7456 153.761 80.4767 153.761 80.0474C153.761 79.6316 153.515 79.3553 153.061 79.3553H145.102C144.393 79.3442 144.154 79.1061 144.154 78.4276V75.1806C144.154 74.5034 144.393 74.2628 145.102 74.2529H153.042C153.471 74.2529 153.753 73.9865 153.753 73.5572C153.753 73.1402 153.48 72.8614 153.051 72.8614H145.102C143.432 72.8614 142.736 73.5559 142.736 75.1806V78.4276Z" fill="white"/><path fill-rule="evenodd" clip-rule="evenodd" d="M157.69 79.3541C156.981 79.3442 156.744 79.0925 156.744 78.4165V75.1695C156.744 74.4923 156.981 74.2628 157.69 74.2542H164.786C165.494 74.2628 165.732 74.5034 165.732 75.1806V78.4165C165.732 79.0925 165.494 79.3442 164.786 79.3553L157.69 79.3541ZM155.326 78.4165C155.326 80.0412 156.022 80.7456 157.69 80.7456H164.786C166.456 80.7456 167.151 80.0412 167.151 78.4165V75.1695C167.151 73.5461 166.456 72.8614 164.786 72.8614H157.69C156.022 72.8614 155.326 73.5461 155.326 75.1695V78.4165Z" fill="white"/><path fill-rule="evenodd" clip-rule="evenodd" d="M119.083 73.5559C119.08 73.1266 118.833 72.8614 118.371 72.8614H115.297C113.644 72.8614 112.931 73.5547 112.931 75.1806V78.4276C112.931 79.0691 112.639 79.3553 111.966 79.3553H107.937C107.512 79.3553 107.254 79.6255 107.254 80.056C107.254 80.4717 107.512 80.7456 107.937 80.7456H111.966C113.611 80.7456 114.35 80.0523 114.35 78.4276V75.1806C114.35 74.4898 114.605 74.2542 115.297 74.2542H118.371C118.834 74.2542 119.08 73.9815 119.083 73.5559Z" fill="white"/><path d="M102.4 53.6248C101.117 54.568 98.1376 56.5892 93.9669 56.5892C87.092 56.5892 82.6004 51.4688 82.6004 44.9559C82.6004 38.4431 87.2295 33.3227 93.921 33.3227C97.6793 33.3227 100.613 35.0744 101.988 36.1075L103.5 31.7057C101.621 30.3133 98.321 28.6514 93.7835 28.6514C84.3878 28.6514 77.3296 35.7032 77.3296 44.9559C77.3296 54.2087 84.1128 61.2605 93.8294 61.2605C98.7793 61.2605 102.308 59.1944 103.913 57.9816L102.4 53.6248Z" fill="white"/><path d="M107.692 49.0433C107.692 56.1401 112.642 61.2605 120.113 61.2605C125.796 61.2605 128.958 58.0715 130.104 56.1401L126.804 53.7146C125.888 55.0172 123.825 56.9935 120.204 56.9935C115.942 56.9935 112.871 54.2985 112.779 50.1213H130.792C130.838 49.7171 130.837 49.3128 130.837 48.9086C130.837 41.5423 126.575 36.6465 119.333 36.6465C112.779 36.6465 107.692 41.7669 107.692 49.0433ZM112.963 46.7526C113.284 43.0695 115.942 40.7338 119.379 40.7338C122.817 40.7338 125.567 42.8898 125.75 46.7526H112.963Z" fill="white"/><path d="M147.499 36.6465C144.107 36.6465 141.586 38.5778 140.67 40.9135V37.2304H135.766V60.6766H140.761V50.5705C140.761 45.4949 142.274 41.5872 147.499 41.5872V36.6465Z" fill="white"/><path d="M153.924 37.2304H151.266V41.2728H153.924V51.4239C153.924 57.1732 155.666 60.991 161.486 60.991C163.045 60.991 163.915 60.8114 163.915 60.8114V56.5892C163.915 56.5892 163.365 56.6342 162.953 56.6342C160.295 56.6342 158.874 55.8257 158.874 52.1875V41.2728H163.732V37.2304H158.874V32.3345H153.924V37.2304Z" fill="white"/><path d="M176.999 61.2605C180.207 61.2605 182.682 59.5088 183.736 57.6223V60.6766H188.64V37.2304H183.644V51.379C183.644 54.6129 181.582 56.8587 178.419 56.8587C175.669 56.8587 173.607 54.9723 173.607 51.7383V37.2304H168.657V51.334C168.657 56.4545 170.811 61.2605 176.999 61.2605Z" fill="white"/><path d="M228.735 45.3602C228.735 40.2847 225.985 36.6465 220.577 36.6465C217.277 36.6465 214.618 38.0838 213.197 40.5542C212.052 38.1736 209.668 36.6465 206.323 36.6465C203.068 36.6465 200.731 38.488 199.86 40.2847C199.86 40.2847 199.86 39.2067 199.86 37.2304H194.956V60.6766H199.952V46.5729C199.952 43.2042 202.06 41.0482 204.764 41.0482C207.606 41.0482 209.348 42.9796 209.348 46.1687V60.6766H214.343V46.6628C214.343 43.0695 216.406 41.0482 219.202 41.0482C222.181 41.0482 223.785 42.9796 223.785 46.6178V60.6766H228.735V45.3602Z" fill="white"/><path d="M54.8486 33.7115C55.3958 34.5935 55.1102 35.731 54.2207 36.2873C53.3249 36.824 52.1624 36.539 51.6164 35.6705C50.4413 33.7756 48.4471 32.6641 46.2365 32.6641C42.7515 32.6641 39.9232 35.4485 39.9232 38.8545C39.9232 42.2767 42.7515 45.0487 46.2365 45.0487C48.4471 45.0487 50.4413 43.931 51.6164 42.0707C52.1624 41.1874 53.3249 40.8975 54.2207 41.4452C55.1102 41.9917 55.3958 43.123 54.8486 43.9964C52.9915 46.9991 49.7807 48.7829 46.2365 48.7829C40.6705 48.7829 36.1236 44.3356 36.1236 38.8545C36.1236 33.408 40.6705 28.9459 46.2365 28.9459C49.7807 28.9459 52.9915 30.7335 54.8486 33.7115ZM29.2239 23.962C29.0075 24.0952 28.8314 24.3086 28.7722 24.5603C26.997 30.9617 22.947 52.4715 45.2149 60.4261C45.3332 60.468 45.4439 60.4927 45.571 60.4927H45.6263H45.6842C45.805 60.4927 45.9233 60.468 46.0478 60.4261C68.3384 52.4616 64.257 30.9617 62.4968 24.5603C62.4251 24.3086 62.249 24.0952 62.0275 23.9459C57.122 20.947 51.4604 19.3691 45.6339 19.3679H45.6201C39.8087 19.3691 34.1508 20.947 29.2239 23.962Z" fill="#00A3E0"/></svg>
