<svg width="52" height="52" viewBox="0 0 52 52" fill="none" xmlns="http://www.w3.org/2000/svg">
<path d="M25.9998 50.6998C39.6412 50.6998 50.6998 39.6412 50.6998 25.9998C50.6998 12.3584 39.6412 1.2998 25.9998 1.2998C12.3584 1.2998 1.2998 12.3584 1.2998 25.9998C1.2998 39.6412 12.3584 50.6998 25.9998 50.6998Z" stroke="#00A3E0" stroke-width="2.5" stroke-miterlimit="10"/>
<path d="M33.0194 49.66L29.8994 48.1L28.5994 45.5V44.2L27.2994 41.6V40.3L24.6994 39H20.7994L18.1994 37.7L16.8994 33.8V31.2V29.9L19.4994 27.3L22.0994 26H24.6994H25.9994L27.2994 27.3L28.5994 28.6H29.8994L31.1994 27.3H33.7994H35.0994V28.6L37.6994 33.8L41.5994 35.1V36.4L38.9994 39L37.6994 40.3V42.9L35.0994 45.5V49.01" stroke="#00A3E0" stroke-width="2.5" stroke-miterlimit="10"/>
<path d="M41.5996 45.1096V41.5996" stroke="#00A3E0" stroke-width="2.5" stroke-miterlimit="10"/>
<path d="M50.6996 24.7L49.3996 26L46.7996 23.4L45.4996 22.1H44.1996V23.4L42.8996 24.7V26L44.1996 27.3V28.6L42.8996 31.2H40.2996L38.9996 28.6L37.6996 22.1H36.3996L35.0996 23.4H33.7996L32.4996 20.8H28.5996L27.2996 22.1H25.9996H24.6996H23.3996H22.0996V19.5L23.3996 18.2H24.6996L25.9996 16.9H27.2996H28.5996L29.8996 15.6L31.1996 14.3V13" stroke="#00A3E0" stroke-width="2.5" stroke-miterlimit="10"/>
<path d="M27.3 16.8996L26 14.2996L27.3 10.3996L31.2 9.09961H33.8V7.79961L32.5 5.19961L33.8 2.59961" stroke="#00A3E0" stroke-width="2.5" stroke-miterlimit="10"/>
<path d="M20.7998 14.2996L22.0998 12.9996L23.3998 9.09961" stroke="#00A3E0" stroke-width="2.5" stroke-miterlimit="10"/>
<path d="M18.2 2.59961H19.5L20.8 3.89961V5.19961L18.2 6.49961H16.9H15.6L14.3 7.79961L13 9.09961V10.3996L11.7 11.6996L9.10004 12.9996L6.50004 14.2996H4.29004" stroke="#00A3E0" stroke-width="2.5" stroke-miterlimit="10"/>
<path d="M1.42969 23.5293L3.89969 27.2993L5.19969 28.5993V32.4993L7.79969 36.3993L10.3997 37.6993V38.9993L9.09969 41.5993V44.0693" stroke="#00A3E0" stroke-width="2.5" stroke-miterlimit="10"/>
</svg>
